# xmcd
#
# Track frame offsets:
#	150
#	24865
#	43892
#	63214
#	82815
#	93862
#	108142
#	124532
#	144577
#	163560
#	180807
#	195732
#	210559
#	229225
#	246230
#	263772
#	282125
#	300197
#	318262
#
# Disc length: 4381 seconds
#
# Revision: 1
# Processed by: cddbd v1.5.2PL0 Copyright (c) Steve Scherf et al.
# Submitted via: EasyCDDAExtractor 16.0.3.2
#
DISCID=e7111b13
DTITLE=Various Artist - Best Chanson Collection
DYEAR=1900
DGENRE=Chanson
TTITLE0=Jean Jacques Goldman - Comme Tol
TTITLE1=Michel Sardou - Delire D, Amour
TTITLE2=Gilbert Becaud - L, Amour C,est L, Affaire Des Gens
TTITLE3=Jane Birkin and Serge Gainsbourg - Je T,Aime Moi Non Plus
TTITLE4=Francoise Hardy - Comment Te Dire Adieu?
TTITLE5=France Gall - Ce Soir Je He Dors Pas
TTITLE6=Patricia Kaas - Kennedy Rose
TTITLE7=Glenn Meduiros and ELSA - Un Roman D, Amitie
TTITLE8=Luis Miguel - Eres Tu
TTITLE9=Jean Francois Maurice - Monaco - 28, A L,Ombre
TTITLE10=Julien Clerc - Si On Chantait
TTITLE11=Pascal Danel - Kilimandjaro
TTITLE12=Claude Barzotti - Le Chant Des Solitaires
TTITLE13=Francoise Hardy - Moi Vouloir Toi
TTITLE14=Heleine - Ce Train Qui S, En Va
TTITLE15=France Cartigny - Sous Quelle Etoile Suis Je Nee
TTITLE16=Hart Rouge - Souvent Pas Comme On Veut
TTITLE17=Citizen Jane - So Sad And Alone
TTITLE18=Syl Vie Vartan - En Ecountant La Pluie
EXTD=
EXTT0=
EXTT1=
EXTT2=
EXTT3=
EXTT4=
EXTT5=
EXTT6=
EXTT7=
EXTT8=
EXTT9=
EXTT10=
EXTT11=
EXTT12=
EXTT13=
EXTT14=
EXTT15=
EXTT16=
EXTT17=
EXTT18=
PLAYORDER=
